<svg width="55" height="55" viewBox="0 0 55 55" fill="none" xmlns="http://www.w3.org/2000/svg">
<circle cx="27.5" cy="27.5" r="26.75" fill="#2F2F2F" stroke="#2F2F2F" stroke-width="1.5"/>
<path d="M28.9381 22C29.9149 22.1906 30.8125 22.6683 31.5162 23.3719C32.2199 24.0756 32.6976 24.9733 32.8881 25.95L28.9381 22ZM30.9381 16C32.9674 16.2254 34.8597 17.1342 36.3044 18.577C37.749 20.0198 38.6601 21.911 38.8881 23.94L34.9131 19.97L30.9381 16ZM35.8881 33.92V36.92C35.8892 37.1985 35.8322 37.4742 35.7206 37.7293C35.6091 37.9845 35.4454 38.2136 35.2402 38.4019C35.035 38.5901 34.7927 38.7335 34.5289 38.8227C34.265 38.9119 33.9855 38.9451 33.7081 38.92C30.631 38.5856 27.6751 37.5341 25.0781 35.85C22.6619 34.3147 20.6135 32.2662 19.0781 29.85C17.3881 27.2412 16.3364 24.271 16.0081 21.18C15.9831 20.9035 16.016 20.6248 16.1046 20.3616C16.1932 20.0985 16.3357 19.8567 16.5229 19.6516C16.7101 19.4466 16.9379 19.2827 17.1919 19.1705C17.4459 19.0583 17.7205 19.0003 17.9981 19H20.9981C21.4834 18.9952 21.9539 19.1671 22.3219 19.4835C22.6898 19.8 22.9302 20.2394 22.9981 20.72C23.1247 21.6801 23.3596 22.6227 23.6981 23.53C23.8327 23.8879 23.8618 24.2769 23.782 24.6509C23.7023 25.0248 23.517 25.3681 23.2481 25.64L21.9781 26.91C23.4017 29.4135 25.4746 31.4864 27.9781 32.91L29.2481 31.64C29.52 31.3711 29.8633 31.1858 30.2372 31.1061C30.6112 31.0263 31.0002 31.0555 31.3581 31.19C32.2654 31.5286 33.2081 31.7634 34.1681 31.89C34.6539 31.9585 35.0975 32.2032 35.4146 32.5775C35.7318 32.9518 35.9003 33.4296 35.8881 33.92Z" stroke="white" stroke-width="1.5" stroke-linecap="round" stroke-linejoin="round"/>
</svg>
