<svg width="44" height="44" viewBox="0 0 44 44" fill="none" xmlns="http://www.w3.org/2000/svg">
<path d="M43.9115 32.9425V39.5662C43.914 40.1811 43.788 40.7898 43.5417 41.3532C43.2953 41.9166 42.934 42.4224 42.4809 42.8381C42.0278 43.2538 41.4928 43.5703 40.9103 43.7673C40.3278 43.9643 39.7106 44.0374 39.0982 43.9821C32.304 43.2438 25.7778 40.9222 20.0438 37.2037C14.7091 33.8138 10.1862 29.2909 6.79625 23.9562C3.06481 18.1962 0.742657 11.6382 0.0179211 4.81349C-0.0372539 4.20293 0.0353083 3.58756 0.230987 3.00658C0.426665 2.42559 0.741173 1.89172 1.15449 1.43894C1.5678 0.98617 2.07086 0.624415 2.63164 0.376714C3.19242 0.129012 3.79864 0.00079139 4.41169 0.000214063H11.0355C12.107 -0.010332 13.1458 0.369111 13.9582 1.06782C14.7707 1.76652 15.3013 2.73682 15.4513 3.79785C15.7309 5.9176 16.2494 7.99892 16.9969 10.0021C17.2939 10.7924 17.3582 11.6512 17.1821 12.4769C17.006 13.3026 16.5969 14.0605 16.0033 14.6608L13.1992 17.4649C16.3423 22.9925 20.9191 27.5693 26.4468 30.7124L29.2508 27.9084C29.8512 27.3148 30.6091 26.9057 31.4347 26.7296C32.2604 26.5535 33.1193 26.6178 33.9096 26.9148C35.9128 27.6623 37.9941 28.1808 40.1138 28.4604C41.1864 28.6117 42.1659 29.1519 42.8661 29.9783C43.5663 30.8047 43.9383 31.8596 43.9115 32.9425Z" fill="#fff"/>
</svg>
