<svg width="55" height="55" viewBox="0 0 55 55" fill="none" xmlns="http://www.w3.org/2000/svg">
<circle cx="27.5" cy="27.5" r="26.75" fill="#2F2F2F" stroke="#2F2F2F" stroke-width="1.5"/>
<path d="M32 17H22C19.2386 17 17 19.2386 17 22V32C17 34.7614 19.2386 37 22 37H32C34.7614 37 37 34.7614 37 32V22C37 19.2386 34.7614 17 32 17Z" stroke="white" stroke-width="1.5" stroke-linecap="round" stroke-linejoin="round"/>
<path d="M31 26.3701C31.1234 27.2023 30.9813 28.0523 30.5938 28.7991C30.2063 29.5459 29.5932 30.1515 28.8416 30.5297C28.0901 30.908 27.2385 31.0397 26.4078 30.906C25.5771 30.7723 24.8098 30.3801 24.2149 29.7852C23.6199 29.1903 23.2277 28.4229 23.0941 27.5923C22.9604 26.7616 23.0921 25.91 23.4703 25.1584C23.8486 24.4069 24.4542 23.7938 25.201 23.4063C25.9478 23.0188 26.7978 22.8766 27.63 23.0001C28.4789 23.1259 29.2649 23.5215 29.8717 24.1284C30.4785 24.7352 30.8741 25.5211 31 26.3701Z" stroke="white" stroke-width="1.5" stroke-linecap="round" stroke-linejoin="round"/>
<path d="M32.5 21.5H32.51" stroke="white" stroke-width="1.5" stroke-linecap="round" stroke-linejoin="round"/>
</svg>
