<svg width="75" height="172" viewBox="0 0 75 172" fill="none" xmlns="http://www.w3.org/2000/svg">
<path d="M20.4041 138.134V134.005H18.0045C15.6627 134.005 13.5461 132.632 12.6165 130.473C1.47648 104.599 -16.755 55.4362 33.293 1.78681C35.4709 -0.548119 39.1701 -0.603514 41.4087 1.67276C93.8209 54.9661 71.3 111.578 63.2223 130.408C62.2827 132.598 60.1364 134.004 57.7624 134.004L55.4277 134.005V138.134C55.4277 141.407 52.7875 144.059 49.5312 144.059H47.9226C49.1732 150.343 49.8537 157.309 44.7942 164.795C37.2074 176.022 34.7421 171.746 29.784 166.052C22.7795 158.009 24.7799 148.039 26.6559 144.059H26.3006C23.0439 144.059 20.4041 141.407 20.4041 138.134Z" fill="url(#paint0_linear)"/>
<path d="M37.0964 93.2142C45.4693 93.2142 52.2568 86.4266 52.2568 78.0537C52.2568 69.6809 45.4693 62.8933 37.0964 62.8933C28.7235 62.8933 21.936 69.6809 21.936 78.0537C21.936 86.4266 28.7235 93.2142 37.0964 93.2142Z" fill="white"/>
<defs>
<linearGradient id="paint0_linear" x1="37.5" y1="0" x2="37.5" y2="171.818" gradientUnits="userSpaceOnUse">
<stop stop-color="#6AFF52"/>
<stop offset="1" stop-color="#199A04"/>
</linearGradient>
</defs>
</svg>
