<svg width="55" height="55" viewBox="0 0 55 55" fill="none" xmlns="http://www.w3.org/2000/svg">
<circle cx="27.5" cy="27.5" r="26.75" fill="#2F2F2F" stroke="#2F2F2F" stroke-width="1.5"/>
<path d="M38 18.0101C37.0424 18.6855 35.9821 19.2022 34.86 19.5401C34.2577 18.8476 33.4573 18.3567 32.567 18.134C31.6767 17.9112 30.7395 17.9673 29.8821 18.2945C29.0247 18.6218 28.2884 19.2045 27.773 19.9638C27.2575 20.7231 26.9877 21.6224 27 22.5401V23.5401C25.2426 23.5856 23.5013 23.1959 21.931 22.4055C20.3607 21.6151 19.0103 20.4487 18 19.0101C18 19.0101 14 28.0101 23 32.0101C20.9405 33.408 18.4872 34.109 16 34.0101C25 39.0101 36 34.0101 36 22.5101C35.9991 22.2315 35.9723 21.9537 35.92 21.6801C36.9406 20.6735 37.6608 19.4028 38 18.0101V18.0101Z" stroke="white" stroke-width="2" stroke-linecap="round" stroke-linejoin="round"/>
</svg>
