<svg width="44" height="44" viewBox="0 0 44 44" fill="none" xmlns="http://www.w3.org/2000/svg"><path d="M43.911 32.943v6.623a4.417 4.417 0 01-4.813 4.416 43.695 43.695 0 01-19.054-6.778A43.055 43.055 0 016.796 23.956 43.695 43.695 0 01.018 4.813 4.416 4.416 0 014.412 0h6.624a4.416 4.416 0 014.415 3.798 28.35 28.35 0 001.546 6.204 4.416 4.416 0 01-.994 4.659L13.2 17.465a35.327 35.327 0 0013.248 13.247l2.804-2.804a4.417 4.417 0 014.659-.993 28.351 28.351 0 006.204 1.545 4.416 4.416 0 013.797 4.483z" fill="#fff"/></svg>