<svg width="50" height="50" viewBox="0 0 50 50" fill="none" xmlns="http://www.w3.org/2000/svg"><path d="M41.667 32.292a23.66 23.66 0 01-7.438-1.188 2.126 2.126 0 00-2.125.5l-4.583 4.584a31.405 31.405 0 01-13.73-13.709l4.584-4.604c.583-.563.75-1.375.52-2.104a23.668 23.668 0 01-1.187-7.438 2.09 2.09 0 00-2.083-2.083H8.333A2.09 2.09 0 006.25 8.333c0 19.563 15.854 35.417 35.417 35.417a2.09 2.09 0 002.083-2.083v-7.292a2.09 2.09 0 00-2.083-2.083zM25 6.25v20.833l6.25-6.25h12.5V6.25H25z" fill="#2F2F2F"/></svg>