<svg width="55" height="55" viewBox="0 0 55 55" fill="none" xmlns="http://www.w3.org/2000/svg"><circle cx="27.5" cy="27.5" r="26.75" fill="#2F2F2F" stroke="#2F2F2F" stroke-width="1.5"/><path d="M28.938 22a5 5 0 013.95 3.95L28.938 22zm2-6a9 9 0 017.95 7.94l-3.975-3.97L30.938 16zm4.95 17.92v3a2 2 0 01-2.18 2 19.791 19.791 0 01-8.63-3.07 19.5 19.5 0 01-6-6 19.791 19.791 0 01-3.07-8.67 2 2 0 011.99-2.18h3a2 2 0 012 1.72c.127.96.362 1.903.7 2.81a2 2 0 01-.45 2.11l-1.27 1.27a16.001 16.001 0 006 6l1.27-1.27a2 2 0 012.11-.45c.907.339 1.85.573 2.81.7a2 2 0 011.72 2.03z" stroke="#fff" stroke-width="1.5" stroke-linecap="round" stroke-linejoin="round"/></svg>