<svg width="75" height="172" viewBox="0 0 75 172" fill="none" xmlns="http://www.w3.org/2000/svg"><path d="M20.404 138.134v-4.129h-2.4a5.847 5.847 0 01-5.388-3.532C1.476 104.599-16.755 55.436 33.294 1.787c2.178-2.335 5.877-2.39 8.116-.114C93.82 54.966 71.3 111.578 63.222 130.408a5.933 5.933 0 01-5.46 3.596l-2.334.001v4.129c0 3.273-2.64 5.925-5.897 5.925h-1.608c1.25 6.284 1.93 13.25-3.129 20.736-7.587 11.227-10.052 6.951-15.01 1.257-7.005-8.043-5.004-18.013-3.128-21.993H26.3c-3.257 0-5.897-2.652-5.897-5.925z" fill="url(#paint0_linear)"/><path d="M37.096 93.214c8.373 0 15.16-6.787 15.16-15.16 0-8.373-6.787-15.16-15.16-15.16-8.372 0-15.16 6.787-15.16 15.16 0 8.373 6.788 15.16 15.16 15.16z" fill="#fff"/><defs><linearGradient id="paint0_linear" x1="37.5" y1="0" x2="37.5" y2="171.818" gradientUnits="userSpaceOnUse"><stop stop-color="#6AFF52"/><stop offset="1" stop-color="#199A04"/></linearGradient></defs></svg>