<svg width="55" height="55" viewBox="0 0 55 55" fill="none" xmlns="http://www.w3.org/2000/svg"><circle cx="27.5" cy="27.5" r="26.75" fill="#2F2F2F" stroke="#2F2F2F" stroke-width="1.5"/><path d="M30.75 25a2.247 2.247 0 01-2.25-2.25v-7.5A2.247 2.247 0 0130.75 13 2.247 2.247 0 0133 15.25v7.5A2.247 2.247 0 0130.75 25zm9 0H37.5v-2.25a2.247 2.247 0 012.25-2.25A2.247 2.247 0 0142 22.75 2.247 2.247 0 0139.75 25zm-16.5 6a2.247 2.247 0 012.25 2.25v7.5A2.247 2.247 0 0123.25 43 2.247 2.247 0 0121 40.75v-7.5A2.247 2.247 0 0123.25 31zm-9 0h2.25v2.25a2.247 2.247 0 01-2.25 2.25A2.247 2.247 0 0112 33.25 2.247 2.247 0 0114.25 31zm15.75.75a2.247 2.247 0 012.25-2.25h7.5A2.247 2.247 0 0142 31.75 2.247 2.247 0 0139.75 34h-7.5A2.247 2.247 0 0130 31.75zm2.25 6.75H30v2.25A2.247 2.247 0 0032.25 43a2.247 2.247 0 002.25-2.25 2.247 2.247 0 00-2.25-2.25zM24 24.25A2.247 2.247 0 0021.75 22h-7.5A2.247 2.247 0 0012 24.25a2.247 2.247 0 002.25 2.25h7.5A2.247 2.247 0 0024 24.25zm-2.25-6.75H24v-2.25A2.247 2.247 0 0021.75 13a2.247 2.247 0 00-2.25 2.25 2.247 2.247 0 002.25 2.25z" stroke="#fff" stroke-width="1.5" stroke-linecap="round" stroke-linejoin="round"/></svg>