<?xml version="1.0" encoding="utf-8"?>
<!-- Generator: Adobe Illustrator 26.0.3, SVG Export Plug-In . SVG Version: 6.00 Build 0)  -->
<svg version="1.1" id="Layer_1" xmlns="http://www.w3.org/2000/svg" xmlns:xlink="http://www.w3.org/1999/xlink" x="0px" y="0px"
	 viewBox="0 0 2930 780" style="enable-background:new 0 0 2930 780;" xml:space="preserve">
<style type="text/css">
	.st0{fill:#1E1E1E;}
	.st1{clip-path:url(#SVGID_00000046298653851104806140000010875806541884664471_);}
	.st2{fill:#483DE0;}
</style>
<g>
	<path class="st0" d="M990.7,565l-79.8-292h35.9l61,237.8h2.8l62.2-237.8h39.9l62.2,237.8h2.8l61-237.8h35.9l-79.8,292h-36.5
		l-64.4-232.7h-2.3L1027.2,565H990.7z"/>
	<path class="st0" d="M1314.6,565V273h98.7c22.9,0,41.7,4.1,56.2,12.3c14.6,8.2,25.4,19.3,32.5,33.2c7,14,10.5,29.6,10.6,46.8
		c0,17.2-3.5,32.8-10.6,46.9c-7,14.1-17.8,25.3-32.3,33.6c-14.5,8.3-33.2,12.5-55.9,12.5h-70.7v-31.4h69.6c15.7,0,28.3-2.7,37.8-8.1
		c9.1-5,16.3-12.7,20.8-22c4.3-9.3,6.5-19.7,6.5-31.4s-2.1-22.2-6.5-31.4c-4.3-9.2-11.3-16.5-20.9-21.7c-9.6-5.3-22.3-7.9-38.2-7.9
		H1350V565H1314.6z"/>
	<path class="st0" d="M1798,346c-1.7-14.5-8.7-25.7-20.8-33.6c-12.2-8-27.1-12-44.8-12c-12.9,0-24.2,2.1-33.9,6.3
		s-17.2,9.9-22.5,17.2c-5.3,7.2-8.1,16-8,25c0,7.8,1.9,14.5,5.6,20c3.8,5.6,8.7,10.3,14.5,13.8c5.8,3.6,12.1,6.7,18.5,9
		c6.5,2.3,12.4,4.2,17.8,5.6l29.7,8c8.6,2.3,17.1,5.1,25.4,8.3c9.6,3.6,18.6,8.4,27,14.3c8.6,6.1,15.9,14,21.2,23.1
		c5.6,9.4,8.4,21,8.4,34.6c0.2,15.2-4.1,30-12.3,42.8c-8.2,12.7-20.2,22.9-35.9,30.4s-34.8,11.3-57.2,11.3c-20.9,0-39-3.4-54.3-10.1
		s-27.2-16.2-35.9-28.2c-8.7-12.1-13.6-26.1-14.8-42.1h36.5c0.9,11,4.7,20.1,11.2,27.3c6.8,7.4,15.3,12.9,24.8,16
		c10.4,3.5,21.4,5.3,32.4,5.2c13.5,0,25.6-2.2,36.4-6.6c10.7-4.4,19.3-10.6,25.5-18.5c6.3-7.9,9.6-17.8,9.4-27.9
		c0-9.7-2.7-17.6-8.1-23.7c-5.4-6.1-12.6-11-21.4-14.8c-9.3-4-18.9-7.3-28.7-10l-35.9-10.3c-22.8-6.6-40.9-15.9-54.2-28.1
		c-13.3-12.2-20-28.1-20-47.8c0-16.3,4.4-30.6,13.3-42.9s20.9-21.7,36-28.5c15.1-6.8,31.9-10.2,50.6-10.2c18.8,0,35.5,3.3,50.2,10
		c14.6,6.7,26.3,15.9,34.9,27.5c8.5,11.4,13.3,25.2,13.6,39.5L1798,346z"/>
	<path class="st0" d="M1935.4,565l-66.7-219h35.3l47.3,167.7h2.3l46.8-167.7h35.9l46.2,167.1h2.3l47.3-167.1h35.4l-66.7,219h-33.1
		l-47.9-168.2h-3.4L1968.5,565H1935.4z"/>
	<path class="st0" d="M2225.1,309.5c-6.3,0.1-12.4-2.3-16.9-6.7c-8.9-8.2-9.5-22.1-1.3-31c0.4-0.4,0.8-0.9,1.3-1.3
		c9.5-8.9,24.3-8.9,33.8,0c8.9,8.2,9.5,22.1,1.3,31c-0.4,0.4-0.8,0.9-1.3,1.3C2237.5,307.1,2231.4,309.6,2225.1,309.5z M2208,565
		V346h33.6v219H2208z"/>
	<path class="st0" d="M2332.9,433.2V565h-33.6V346h32.5v34.2h2.9c5-11,13.2-20.4,23.4-26.9c10.5-6.8,24-10.2,40.5-10.2
		c14.8,0,27.8,3,38.9,9s19.8,15.1,26,27.4c6.2,12.2,9.3,27.6,9.3,46.3V565H2439V428.1c0-17.2-4.5-30.6-13.4-40.3
		s-21.2-14.5-36.8-14.5c-10-0.2-19.9,2.2-28.7,7c-8.5,4.7-15.4,11.8-19.9,20.4C2335.3,409.6,2332.9,420.5,2332.9,433.2z"/>
	<path class="st0" d="M2618.6,651.7c-16.2,0-30.2-2.1-41.9-6.2c-11.7-4.1-21.4-9.6-29.2-16.2c-7.3-6.1-13.5-13.4-18.5-21.5
		l26.8-18.8c3.1,4,6.9,8.6,11.6,13.8s11,9.7,19.2,13.5c8.1,3.9,18.8,5.8,32,5.8c17.7,0,32.3-4.3,43.8-12.8
		c11.5-8.6,17.3-21.9,17.3-40.2v-44.5h-2.9c-2.5,4-6,8.9-10.5,14.8s-11,11-19.4,15.5c-8.4,4.5-19.8,6.8-34,6.8
		c-17.7,0-33.5-4.2-47.6-12.5s-25.1-20.5-33.2-36.5c-8.1-16-12.2-35.4-12.2-58.2c0-22.4,3.9-42,11.8-58.7s18.9-29.6,32.9-38.8
		c14.1-9.2,30.3-13.8,48.8-13.8c14.3,0,25.6,2.3,34,7c8.4,4.7,14.9,10,19.4,16c4.5,5.9,8,10.8,10.5,14.6h3.4V346h32.5v225.2
		c0,18.8-4.3,34.2-12.8,46c-8.6,11.9-20.5,21-34.2,26.1C2652,648.9,2636.1,651.7,2618.6,651.7z M2617.5,531.3
		c13.5,0,24.9-3.1,34.2-9.3c9.3-6.2,16.4-15.1,21.2-26.7c4.9-11.6,7.3-25.5,7.3-41.6c0-15.8-2.4-29.7-7.1-41.8
		c-4.8-12.1-11.8-21.5-21.1-28.4c-9.3-6.8-20.8-10.3-34.5-10.3c-14.3,0-26.1,3.6-35.6,10.8s-16.5,16.9-21.2,29.1
		c-4.7,12.2-7.1,25.7-7.1,40.5c0,15.2,2.4,28.6,7.2,40.3c4.8,11.6,11.9,20.8,21.4,27.4C2591.6,528,2603.4,531.3,2617.5,531.3
		L2617.5,531.3z"/>
	<path class="st0" d="M2926,395l-30.2,8.5c-2-5.3-4.9-10.3-8.3-14.8c-4-5.1-9.1-9.1-14.9-11.9c-6.3-3.1-14.3-4.7-24.1-4.7
		c-13.4,0-24.5,3.1-33.4,9.2c-8.9,6.1-13.3,13.9-13.3,23.3c0,8.4,3,15,9.1,19.8c6.1,4.8,15.6,8.9,28.5,12.1l32.5,8
		c19.6,4.8,34.2,12,43.8,21.7s14.4,22.3,14.4,37.6c0.1,12.1-3.6,23.9-10.8,33.7c-7.2,9.9-17.2,17.7-30,23.4s-27.8,8.6-44.8,8.5
		c-22.3,0-40.8-4.8-55.5-14.5c-14.6-9.7-23.9-23.9-27.8-42.5l31.9-8c3,11.8,8.8,20.6,17.3,26.5c8.5,5.9,19.7,8.8,33.4,8.8
		c15.7,0,28.2-3.4,37.4-10.1s13.9-14.8,13.9-24.2c0.2-7.2-2.8-14.2-8-19.2c-5.3-5.2-13.5-9.1-24.5-11.6l-36.5-8.6
		c-20.1-4.7-34.8-12.1-44.1-22.2s-14-22.6-14.1-37.7c-0.2-11.8,3.5-23.3,10.5-32.8c7-9.5,16.5-17,28.7-22.4
		c12.1-5.4,25.9-8.1,41.3-8.1c21.7,0,38.7,4.8,51.1,14.3C2911.9,366.9,2920.8,379.4,2926,395z"/>
	<g>
		<defs>
			<rect id="SVGID_1_" width="780" height="780"/>
		</defs>
		<clipPath id="SVGID_00000038397865045246426570000002234751042788610454_">
			<use xlink:href="#SVGID_1_"  style="overflow:visible;"/>
		</clipPath>
		<g style="clip-path:url(#SVGID_00000038397865045246426570000002234751042788610454_);">
			<path class="st2" d="M271,720c-36.5,0.1-71.6-14.4-97.4-40.2L41.6,548C15.5,521.9,0.1,486.6,0,449.6
				c-0.2-36.6,14.4-71.7,40.4-97.5l56.7-56.7c5.5-5.4,14.3-5.4,19.7,0l0,0c28.6,28.5,28.6,74.8,0.1,103.4c0,0-0.1,0.1-0.1,0.1
				l-14,14c-9.4,9.2-14.9,21.6-15.5,34.6c-0.6,14,4.8,27.7,14.7,37.6l133.2,133c19.8,19.7,51.8,19.7,71.5,0L425,500.1
				c9.4-9.2,14.9-21.6,15.5-34.6c0.5-14-4.8-27.6-14.8-37.5l-133.2-133c-53.7-53.7-53.7-140.9,0-194.6c53.7-53.7,141.1-53.7,194.9,0
				l56.7,56.7c5.4,5.4,5.5,14.2,0,19.7c0,0,0,0,0,0l0,0c-28.6,28.6-75,28.6-103.6,0l-14-14c-19.5-19.4-51.2-20.7-71.2-1.8
				c-20.3,19.1-21.3,51.1-2.2,71.4c0.3,0.4,0.7,0.7,1.1,1.1L486.1,365c26.2,26.1,41.6,61.4,41.6,98.4c0.2,36.6-14.4,71.7-40.4,97.5
				l-119,118.9C342.6,705.6,307.5,720.1,271,720z"/>
			<path class="st2" d="M363.6,516.3l-54.1,54c-2.1,2.1-5.5,2.1-7.6,0c0,0,0,0,0,0L192.3,460.8c-5.4-5.4-5.4-14.3,0-19.7
				c0,0,0,0,0,0c28.6-28.6,75-28.6,103.6,0l67.8,67.7C365.7,510.8,365.8,514.2,363.6,516.3C363.7,516.3,363.7,516.3,363.6,516.3z"/>
			<path class="st2" d="M739.6,546.7l-133.2,133c-51.9,51.7-135.2,53.8-189.7,4.8c-2.2-2-2.4-5.4-0.4-7.6c0.1-0.1,0.1-0.1,0.2-0.2
				l49.5-49.4c4.5-4.4,11.3-5.2,16.7-1.9c19.9,12.2,45.6,9.1,62.2-7.4l133.2-133c19.7-19.7,19.7-51.7,0-71.4c0,0,0,0,0,0l-14.8-14.8
				c-28.6-28.5-28.6-74.8-0.1-103.4c0,0,0.1-0.1,0.1-0.1c5.5-5.4,14.3-5.4,19.8,0l56.7,56.7c53.7,53.6,53.8,140.7,0.2,194.4
				C739.8,546.6,739.7,546.7,739.6,546.7z"/>
		</g>
	</g>
</g>
</svg>
